<svg xmlns="http://www.w3.org/2000/svg" xmlns:xlink="http://www.w3.org/1999/xlink" xmlns:fi="http://pattern.flaticon.com/" x="0" y="0" width="1600" height="800" viewBox="0 0 1600 800"><rect x="0px" y="0px" width="100%" height="100%" opacity="1" fill="#ffffff"/><defs><g transform="matrix(0.0390625 0 0 0.0390625 77.5 340)" id="L1_46"><path d="m396.875 294.925781-35.273438 71.453125-78.855468 11.457032 57.058594 55.632812-13.460938 78.53125 70.53125-37.074219 70.53125 37.074219-13.476562-78.546875 58.070312-55.617187-79.867188-11.457032zm0 0"/><path d="m30 60h301v-60h-301c-16.570312 0-30 13.429688-30 30s13.429688 30 30 30zm0 0"/><path d="m60 452v-362h-30c-10.976562 0-21.140625-3.175781-30-8.34375v310.34375c0 33.136719 26.863281 60 60 60zm0 0"/><path d="m90 452h216.195312l1.382813-8.058594-89.28125-87.054687 123.382813-17.929688 19.320312-39.140625v-209.816406h-271zm45-302h181v30h-181zm0 0"/></g><g transform="matrix(0.0390625 0 0 0.0390625 252.5 340)" id="L1_47"><path d="m300 91h-210v300h210zm-30 240h-150v-30h150zm0-60h-150v-30h150zm0-60h-150v-30h150zm0-60h-150v-30h150zm0 0"/><path d="m390 0h-390v512h390zm-60 421h-120v30h-30v-30h-120v-360h270zm0 0"/></g><g transform="matrix(0.078125 0 0 0.078125 67.5 67.5)" id="L1_48"><path d="m296.941406 261.769531c-23.789062 19.773438-58.109375 19.757813-81.871094.011719-35.667968-29.660156-72.359374-44.691406-109.070312-44.691406h-106v30h106c29.925781 0 59.324219 12.351562 89.898438 37.765625 17.253906 14.339843 38.613281 22.234375 60.101562 22.234375s42.847656-7.894532 60.117188-22.25c30.558593-25.398438 59.957031-37.75 89.882812-37.75h106v-30h-106c-36.710938 0-73.402344 15.027344-109.058594 44.679687zm0 0"/><path d="m234.261719 238.710938c6.109375 5.082031 13.828125 7.882812 21.738281 7.882812s15.644531-2.800781 21.769531-7.898438c41.175781-34.246093 84.316407-51.605468 128.230469-51.605468h75v-60h-75c-25.1875 0-51.066406 4.925781-76.21875 14.117187 17.308594-14.238281 36.160156-25.53125 55.871094-32.703125l70.476562-25.652344-10.253906-28.183593-70.476562 25.648437c-25.796876 9.390625-50.402344 24.515625-72.304688 44.039063 11.710938-20.609375 26.042969-38.945313 42.980469-53.164063l57.449219-48.207031-19.277344-22.96875-57.449219 48.207031c-30.359375 25.464844-54.128906 61.382813-68.75 102.265625-14.621094-40.882812-38.390625-76.792969-68.738281-102.28125l-57.46875-48.207031-19.277344 22.996094 57.46875 48.195312c16.925781 14.21875 31.253906 32.554688 42.960938 53.164063-21.902344-19.527344-46.503907-34.652344-72.304688-44.039063l-70.472656-25.648437-10.253906 28.183593 70.472656 25.648438c21.214844 7.722656 41.488281 20.128906 59.839844 35.964844-27.664063-11.195313-56.378907-17.375-84.273438-17.375h-76v60h76c43.914062 0 87.054688 17.375 128.261719 51.621094zm0 0"/></g><g transform="matrix(0.078125 0 0 0.078125 242.5 67.5)" id="L1_49"><path d="m482 0h-241c-16.570312 0-30 13.429688-30 30 0 16.566406 13.429688 30 30 30h241zm0 0"/><path d="m30 211h241v-60h-241c-16.570312 0-30 13.429688-30 30 0 16.566406 13.429688 30 30 30zm0 0"/><path d="m0 232.65625v219.34375c0 33.136719 26.863281 60 60 60v-271h-30c-10.976562 0-21.140625-3.175781-30-8.34375zm0 0"/><path d="m90 512h211v-271h-211zm45-211h121v30h-121zm0 0"/><path d="m301 211h30v150h181v-271h-211zm0 0"/><path d="m211 81.65625v39.34375h60v-31h-30c-10.976562 0-21.140625-3.175781-30-8.34375zm0 0"/></g><g transform="matrix(0.13206017156295854 -0.03538541632261026 0.03538541632261026 0.13206017156295854 132.1339295012944 150.25126265847084)" id="L1_50"><path d="m362 272c-49.707031 0-90 40.292969-90 90s40.292969 90 90 90c19.429688 0 37.308594-6.300781 52.019531-16.769531l76.769531 76.769531 21.210938-21.210938-76.769531-76.769531c10.46875-14.710937 16.769531-32.589843 16.769531-52.019531 0-49.707031-40.292969-90-90-90zm0 0"/><path d="m0 30c0 16.570312 13.429688 30 30 30h302v-60h-302c-16.570312 0-30 13.429688-30 30zm0 0"/><path d="m60 452v-362h-30c-10.976562 0-21.140625-3.175781-30-8.34375v310.34375c0 33.136719 26.863281 60 60 60zm0 0"/><path d="m90 452h193.472656c-25.199218-22.011719-41.472656-53.988281-41.472656-90 0-66.167969 53.832031-120 120-120v-152h-272zm45-302h182v30h-182zm0 0"/></g><g transform="matrix(0.11877184361219406 0 0 0.11877184361219406 231.09440803527832 247.09440803527832)" id="L1_51"><path d="m451.210938 317.789062c19.847656 19.863282 30.789062 46.21875 30.789062 74.210938s-10.941406 54.347656-30.789062 74.210938l21.210937 21.210937c25.515625-25.519531 39.578125-59.414063 39.578125-95.421875s-14.0625-69.902344-39.578125-95.421875zm0 0"/><path d="m430.011719 445.011719c14.179687-14.179688 21.988281-33 21.988281-53.011719s-7.808594-38.832031-21.988281-53.011719l-21.210938 21.210938c8.511719 8.511719 13.199219 19.804687 13.199219 31.800781s-4.6875 23.289062-13.199219 31.800781zm0 0"/><path d="m30 60h302v-60h-302c-16.570312 0-30 13.429688-30 30 0 16.566406 13.429688 30 30 30zm0 0"/><path d="m61 452-1-362h-30c-10.976562 0-21.140625-3.175781-30-8.34375v310.34375c0 33.136719 27.863281 60 61 60zm0 0"/><path d="m272 332v120h60l60 60v-240l-60 60zm0 0"/><path d="m91 452h151v-150h77.578125l42.421875-42.421875v-169.578125h-272zm44-302h182v30h-182zm0 0"/></g><g transform="matrix(0.058004852571348645 -0.046956308314877376 0.046956308314877376 0.058004852571348645 323.1299428131261 173.17157267034335)" id="L1_52"><path d="m256 225.375 9.332031 7.394531c7.703125 6.125 15.921875 9.230469 24.417969 9.230469 31.011719 0 62.972656-41.371094 71.25-91 7.550781-45.367188-14.566406-89.515625-60.367188-89.515625-10.203124 0-19.902343 3.074219-28.945312 7.71875 3.304688-21.574219 21.824219-39.203125 44.3125-39.203125v-30c-39.242188 0-71.179688 31.40625-74.375 69.835938-9.375-5.085938-19.554688-8.351563-30.257812-8.351563-45.585938 0-67.976563 43.804687-60.367188 89.5 8.277344 49.644531 40.238281 91.015625 71.25 91.015625 8.496094 0 16.714844-3.105469 24.417969-9.230469zm0 0"/><path d="m222.25 242h-132.25c-33.136719 0-60 26.863281-60 60s26.863281 60 60 60h422v-30h-30c-6.121094 0-15-11.6875-15-30s8.878906-30 15-30h30v-30zm139.75 75h-242v-30h242zm0 0"/><path d="m422 392h-422v30h30c6.121094 0 15 11.6875 15 30s-8.878906 30-15 30h-30v30h422c33.136719 0 60-26.863281 60-60s-26.863281-60-60-60zm-30 75h-241v-30h241zm0 0"/></g><g transform="matrix(0.078125 0 0 0.078125 155 330)" id="L1_53"><path d="m45 512h15v-422h-30c-10.976562 0-21.140625-3.175781-30-8.34375v384.34375c0 24.8125 20.1875 46 45 46zm0 0"/><path d="m255 271c-16.539062 0-30 13.460938-30 30s13.460938 30 30 30 30-13.460938 30-30-13.460938-30-30-30zm0 0"/><path d="m90 512h330v-422h-330zm165-331c66.167969 0 120 53.832031 120 120v15c0 24.8125-20.1875 45-45 45-13.804688 0-26.019531-6.382812-34.28125-16.195312-10.714844 9.964843-24.960938 16.195312-40.71875 16.195312-33.089844 0-60-26.910156-60-60s26.910156-60 60-60 60 26.910156 60 60v15c0 8.277344 6.722656 15 15 15 10.972656 0 12.535156-8.175781 13.84375-16.125.75-4.566406 1.15625-9.195312 1.15625-13.875 0-49.628906-40.371094-90-90-90s-90 40.371094-90 90 40.371094 90 90 90c11.558594 0 22.820312-2.167969 33.457031-6.429688l11.160157 27.859376c-14.207032 5.683593-29.222657 8.570312-44.617188 8.570312-66.167969 0-120-53.832031-120-120s53.832031-120 120-120zm0 0"/><path d="m30 60h360v-60h-360c-16.570312 0-30 13.429688-30 30s13.429688 30 30 30zm0 0"/></g><g transform="matrix(0.09765625 0 0 0.09765625 62.5 237.5)" id="L1_54"><path d="m238.804688 120h34.394531c33.984375-19.65625 72.464843-30 111.882812-30h96.917969v-90h-15c-84.394531 0-162.515625 40.535156-211 108.601562-48.484375-68.066406-126.605469-108.601562-211-108.601562h-15v90h96.917969c39.417969 0 77.898437 10.34375 111.886719 30zm0 0"/><path d="m211 505.703125v-366.171875c-26.15625-12.65625-54.707031-19.53125-84.082031-19.53125h-126.917969v362h126.917969c29.824219 0 58.628906 8.402344 84.082031 23.703125zm0 0"/><path d="m241 150h30v362h-30zm0 0"/><path d="m301 139.53125v366.171875c25.453125-15.300781 54.257812-23.703125 84.082031-23.703125h126.917969v-362h-126.917969c-29.375 0-57.925781 6.875-84.082031 19.53125zm151 100.46875h-121v-30h121zm0 0"/></g><g transform="matrix(0.07216878238154244 0.027063293842256416 -0.027063293842256416 0.07216878238154244 -11.54700506605722 -25.403411513292507)" id="L1_55"><path d="m452 242h-90v150h-60l105 120 105-120h-60zm0 0"/><path d="m30 60h302v-60h-302c-16.570312 0-30 13.429688-30 30 0 16.566406 13.429688 30 30 30zm0 0"/><path d="m60 452v-362h-30c-10.976562 0-21.140625-3.175781-30-8.34375v310.34375c0 33.136719 26.863281 60 60 60zm0 0"/><path d="m332 362v-151h30v-121h-272v362h224.640625l-78.75-90zm-197-212h182v30h-182zm0 0"/></g></defs><g fi:class="KUsePattern"><pattern id="pattern_L1_46" width="350" height="350" patternUnits="userSpaceOnUse"><use xlink:href="#L1_46" x="-350" y="-350"/><use xlink:href="#L1_46" x="0" y="-350"/><use xlink:href="#L1_46" x="350" y="-350"/><use xlink:href="#L1_46" x="-350" y="0"/><use xlink:href="#L1_46" x="0" y="0"/><use xlink:href="#L1_46" x="350" y="0"/><use xlink:href="#L1_46" x="-350" y="350"/><use xlink:href="#L1_46" x="0" y="350"/><use xlink:href="#L1_46" x="350" y="350"/></pattern><rect x="0" y="0" width="100%" height="100%" fill="url(#pattern_L1_46)"/></g><g fi:class="KUsePattern"><pattern id="pattern_L1_47" width="350" height="350" patternUnits="userSpaceOnUse"><use xlink:href="#L1_47" x="-350" y="-350"/><use xlink:href="#L1_47" x="0" y="-350"/><use xlink:href="#L1_47" x="350" y="-350"/><use xlink:href="#L1_47" x="-350" y="0"/><use xlink:href="#L1_47" x="0" y="0"/><use xlink:href="#L1_47" x="350" y="0"/><use xlink:href="#L1_47" x="-350" y="350"/><use xlink:href="#L1_47" x="0" y="350"/><use xlink:href="#L1_47" x="350" y="350"/></pattern><rect x="0" y="0" width="100%" height="100%" fill="url(#pattern_L1_47)"/></g><g fi:class="KUsePattern"><pattern id="pattern_L1_48" width="350" height="350" patternUnits="userSpaceOnUse"><use xlink:href="#L1_48" x="-350" y="-350"/><use xlink:href="#L1_48" x="0" y="-350"/><use xlink:href="#L1_48" x="350" y="-350"/><use xlink:href="#L1_48" x="-350" y="0"/><use xlink:href="#L1_48" x="0" y="0"/><use xlink:href="#L1_48" x="350" y="0"/><use xlink:href="#L1_48" x="-350" y="350"/><use xlink:href="#L1_48" x="0" y="350"/><use xlink:href="#L1_48" x="350" y="350"/></pattern><rect x="0" y="0" width="100%" height="100%" fill="url(#pattern_L1_48)"/></g><g fi:class="KUsePattern"><pattern id="pattern_L1_49" width="350" height="350" patternUnits="userSpaceOnUse"><use xlink:href="#L1_49" x="-350" y="-350"/><use xlink:href="#L1_49" x="0" y="-350"/><use xlink:href="#L1_49" x="350" y="-350"/><use xlink:href="#L1_49" x="-350" y="0"/><use xlink:href="#L1_49" x="0" y="0"/><use xlink:href="#L1_49" x="350" y="0"/><use xlink:href="#L1_49" x="-350" y="350"/><use xlink:href="#L1_49" x="0" y="350"/><use xlink:href="#L1_49" x="350" y="350"/></pattern><rect x="0" y="0" width="100%" height="100%" fill="url(#pattern_L1_49)"/></g><g fi:class="KUsePattern"><pattern id="pattern_L1_50" width="350" height="350" patternUnits="userSpaceOnUse"><use xlink:href="#L1_50" x="-350" y="-350"/><use xlink:href="#L1_50" x="0" y="-350"/><use xlink:href="#L1_50" x="350" y="-350"/><use xlink:href="#L1_50" x="-350" y="0"/><use xlink:href="#L1_50" x="0" y="0"/><use xlink:href="#L1_50" x="350" y="0"/><use xlink:href="#L1_50" x="-350" y="350"/><use xlink:href="#L1_50" x="0" y="350"/><use xlink:href="#L1_50" x="350" y="350"/></pattern><rect x="0" y="0" width="100%" height="100%" fill="url(#pattern_L1_50)"/></g><g fi:class="KUsePattern"><pattern id="pattern_L1_51" width="350" height="350" patternUnits="userSpaceOnUse"><use xlink:href="#L1_51" x="-350" y="-350"/><use xlink:href="#L1_51" x="0" y="-350"/><use xlink:href="#L1_51" x="350" y="-350"/><use xlink:href="#L1_51" x="-350" y="0"/><use xlink:href="#L1_51" x="0" y="0"/><use xlink:href="#L1_51" x="350" y="0"/><use xlink:href="#L1_51" x="-350" y="350"/><use xlink:href="#L1_51" x="0" y="350"/><use xlink:href="#L1_51" x="350" y="350"/></pattern><rect x="0" y="0" width="100%" height="100%" fill="url(#pattern_L1_51)"/></g><g fi:class="KUsePattern"><pattern id="pattern_L1_52" width="350" height="350" patternUnits="userSpaceOnUse"><use xlink:href="#L1_52" x="-350" y="-350"/><use xlink:href="#L1_52" x="0" y="-350"/><use xlink:href="#L1_52" x="350" y="-350"/><use xlink:href="#L1_52" x="-350" y="0"/><use xlink:href="#L1_52" x="0" y="0"/><use xlink:href="#L1_52" x="350" y="0"/><use xlink:href="#L1_52" x="-350" y="350"/><use xlink:href="#L1_52" x="0" y="350"/><use xlink:href="#L1_52" x="350" y="350"/></pattern><rect x="0" y="0" width="100%" height="100%" fill="url(#pattern_L1_52)"/></g><g fi:class="KUsePattern"><pattern id="pattern_L1_53" width="350" height="350" patternUnits="userSpaceOnUse"><use xlink:href="#L1_53" x="-350" y="-350"/><use xlink:href="#L1_53" x="0" y="-350"/><use xlink:href="#L1_53" x="350" y="-350"/><use xlink:href="#L1_53" x="-350" y="0"/><use xlink:href="#L1_53" x="0" y="0"/><use xlink:href="#L1_53" x="350" y="0"/><use xlink:href="#L1_53" x="-350" y="350"/><use xlink:href="#L1_53" x="0" y="350"/><use xlink:href="#L1_53" x="350" y="350"/></pattern><rect x="0" y="0" width="100%" height="100%" fill="url(#pattern_L1_53)"/></g><g fi:class="KUsePattern"><pattern id="pattern_L1_54" width="350" height="350" patternUnits="userSpaceOnUse"><use xlink:href="#L1_54" x="-350" y="-350"/><use xlink:href="#L1_54" x="0" y="-350"/><use xlink:href="#L1_54" x="350" y="-350"/><use xlink:href="#L1_54" x="-350" y="0"/><use xlink:href="#L1_54" x="0" y="0"/><use xlink:href="#L1_54" x="350" y="0"/><use xlink:href="#L1_54" x="-350" y="350"/><use xlink:href="#L1_54" x="0" y="350"/><use xlink:href="#L1_54" x="350" y="350"/></pattern><rect x="0" y="0" width="100%" height="100%" fill="url(#pattern_L1_54)"/></g><g fi:class="KUsePattern"><pattern id="pattern_L1_55" width="350" height="350" patternUnits="userSpaceOnUse"><use xlink:href="#L1_55" x="-350" y="-350"/><use xlink:href="#L1_55" x="0" y="-350"/><use xlink:href="#L1_55" x="350" y="-350"/><use xlink:href="#L1_55" x="-350" y="0"/><use xlink:href="#L1_55" x="0" y="0"/><use xlink:href="#L1_55" x="350" y="0"/><use xlink:href="#L1_55" x="-350" y="350"/><use xlink:href="#L1_55" x="0" y="350"/><use xlink:href="#L1_55" x="350" y="350"/></pattern><rect x="0" y="0" width="100%" height="100%" fill="url(#pattern_L1_55)"/></g></svg>